<mxfile host="app.diagrams.net" agent="Mozilla/5.0 (X11; Ubuntu; Linux x86_64; rv:141.0) Gecko/20100101 Firefox/141.0" version="28.1.1">
  <diagram name="Page-1" id="rZxvO-xGBDbaET3Zqq4u">
    <mxGraphModel dx="1356" dy="800" grid="1" gridSize="10" guides="1" tooltips="1" connect="1" arrows="1" fold="1" page="1" pageScale="1" pageWidth="850" pageHeight="1100" math="0" shadow="0">
      <root>
        <mxCell id="0" />
        <mxCell id="1" parent="0" />
        <mxCell id="CZZduc1jLrHA5I96F7Oo-1" value="" style="shape=image;html=1;verticalAlign=top;verticalLabelPosition=bottom;labelBackgroundColor=#ffffff;imageAspect=0;aspect=fixed;image=https://icons.diagrams.net/icon-cache1/Kameleon_Free_Pack-2373/Hacker-1007.svg" parent="1" vertex="1">
          <mxGeometry x="370" y="329" width="110" height="110" as="geometry" />
        </mxCell>
        <mxCell id="CZZduc1jLrHA5I96F7Oo-6" style="edgeStyle=orthogonalEdgeStyle;rounded=0;orthogonalLoop=1;jettySize=auto;html=1;strokeWidth=3;" parent="1" source="CZZduc1jLrHA5I96F7Oo-2" target="CZZduc1jLrHA5I96F7Oo-3" edge="1">
          <mxGeometry relative="1" as="geometry" />
        </mxCell>
        <mxCell id="CZZduc1jLrHA5I96F7Oo-2" value="" style="verticalLabelPosition=bottom;html=1;verticalAlign=top;align=center;strokeColor=none;fillColor=#00BEF2;shape=mxgraph.azure.user;" parent="1" vertex="1">
          <mxGeometry x="230" y="240" width="50" height="50" as="geometry" />
        </mxCell>
        <mxCell id="CZZduc1jLrHA5I96F7Oo-3" value="" style="verticalLabelPosition=bottom;html=1;verticalAlign=top;align=center;strokeColor=none;fillColor=#00BEF2;shape=mxgraph.azure.user;" parent="1" vertex="1">
          <mxGeometry x="550" y="240" width="50" height="50" as="geometry" />
        </mxCell>
        <mxCell id="CZZduc1jLrHA5I96F7Oo-4" value="&lt;font style=&quot;font-size: 24px;&quot;&gt;Utente A&lt;/font&gt;" style="text;html=1;align=center;verticalAlign=middle;resizable=0;points=[];autosize=1;strokeColor=none;fillColor=none;" parent="1" vertex="1">
          <mxGeometry x="195" y="293" width="120" height="40" as="geometry" />
        </mxCell>
        <mxCell id="CZZduc1jLrHA5I96F7Oo-5" value="&lt;font style=&quot;font-size: 24px;&quot;&gt;Utente B&lt;/font&gt;" style="text;html=1;align=center;verticalAlign=middle;resizable=0;points=[];autosize=1;strokeColor=none;fillColor=none;" parent="1" vertex="1">
          <mxGeometry x="515" y="293" width="120" height="40" as="geometry" />
        </mxCell>
        <mxCell id="CZZduc1jLrHA5I96F7Oo-8" value="&lt;font style=&quot;font-size: 24px;&quot;&gt;Intercettatore&lt;/font&gt;" style="text;html=1;align=center;verticalAlign=middle;resizable=0;points=[];autosize=1;strokeColor=none;fillColor=none;" parent="1" vertex="1">
          <mxGeometry x="345" y="419" width="160" height="40" as="geometry" />
        </mxCell>
        <mxCell id="w3TIozxd0BtOAEl23d5w-1" value="" style="image;sketch=0;aspect=fixed;html=1;points=[];align=center;fontSize=12;image=img/lib/mscae/Key.svg;" vertex="1" parent="1">
          <mxGeometry x="180" y="230" width="31" height="50" as="geometry" />
        </mxCell>
      </root>
    </mxGraphModel>
  </diagram>
</mxfile>
